<svg width="93" height="25" viewBox="0 0 93 25" fill="none" xmlns="http://www.w3.org/2000/svg">
<path d="M0.652 24H0.21L3.168 0.199998H4.29L11.43 22.198L18.536 0.199998H19.658L22.616 24H19.794L17.448 4.96L11.294 24H9.152L2.93 5.198L0.652 24ZM27.6461 24H27.2041L30.1621 0.199998H31.2841L38.4241 22.198L45.5301 0.199998H46.6521L49.6101 24H46.7881L44.4421 4.96L38.2881 24H36.1461L29.9241 5.198L27.6461 24ZM57.0883 0.233998C58.0856 0.188665 59.0603 0.165999 60.0123 0.165999C60.9869 0.165999 62.0069 0.267999 63.0723 0.471999C64.1603 0.675999 65.2256 1.06133 66.2683 1.628C67.3336 2.172 68.2289 2.886 68.9543 3.77C69.7023 4.63133 70.3029 5.776 70.7563 7.204C71.2096 8.632 71.4363 10.366 71.4363 12.406C71.4363 14.446 71.0963 16.282 70.4163 17.914C69.7589 19.5233 68.8523 20.7587 67.6963 21.62C65.4523 23.2973 62.7436 24.136 59.5703 24.136C58.4596 24.136 57.2923 24.0907 56.0683 24H54.3683V0.233998H57.0883ZM57.1903 23.728C57.6663 23.7733 58.2669 23.796 58.9923 23.796C59.7176 23.796 60.2616 23.7847 60.6243 23.762C60.9869 23.7393 61.4856 23.6487 62.1203 23.49C62.7549 23.3087 63.3443 23.0707 63.8883 22.776C64.4323 22.4813 64.9989 22.0507 65.5883 21.484C66.2003 20.8947 66.7216 20.2033 67.1523 19.41C68.1269 17.5513 68.6143 15.126 68.6143 12.134C68.6143 10.0033 68.3536 8.16733 67.8323 6.626C67.3109 5.062 66.7103 3.906 66.0303 3.158C65.3729 2.41 64.5683 1.82067 63.6163 1.39C62.6643 0.936665 61.9049 0.675998 61.3383 0.607999C60.7716 0.539999 60.1143 0.505998 59.3663 0.505998C58.6183 0.505998 57.8929 0.539999 57.1903 0.607999V23.728ZM86.7047 24.136C82.466 24.136 79.3267 22.9347 77.2867 20.532C76.5613 19.6707 75.972 18.526 75.5187 17.098C75.0653 15.67 74.8387 13.936 74.8387 11.896C74.8387 9.856 75.1673 8.03133 75.8247 6.422C76.5047 4.79 77.4227 3.532 78.5787 2.648C80.8227 0.993332 83.5313 0.165999 86.7047 0.165999C87.6113 0.165999 88.4953 0.245332 89.3567 0.404C90.218 0.539999 90.864 0.687332 91.2947 0.845998L91.9067 1.084L91.8047 1.424C90.2633 0.811999 88.5633 0.505998 86.7047 0.505998C84.302 0.505998 82.296 1.288 80.6867 2.852C79.4627 4.008 78.6013 5.708 78.1027 7.952C77.808 9.22133 77.6607 10.774 77.6607 12.61C77.6607 14.446 77.9213 16.146 78.4427 17.71C78.964 19.2513 79.5533 20.396 80.2107 21.144C80.8907 21.892 81.7067 22.4927 82.6587 22.946C83.6107 23.3767 84.37 23.626 84.9367 23.694C85.5033 23.762 86.1833 23.796 86.9767 23.796C87.7927 23.796 88.7107 23.7167 89.7307 23.558C90.7507 23.3993 91.5213 23.252 92.0427 23.116L92.8247 22.878L92.9267 23.218C91.204 23.83 89.13 24.136 86.7047 24.136Z" fill="#070707"/>
</svg>
